<?xml version="1.0" encoding="utf-8"?>
<!-- Generator: Adobe Illustrator 27.5.0, SVG Export Plug-In . SVG Version: 6.00 Build 0)  -->
<svg version="1.1" id="Layer_1" xmlns="http://www.w3.org/2000/svg" xmlns:xlink="http://www.w3.org/1999/xlink" x="0px" y="0px"
	 viewBox="0 0 595.28 841.89" style="enable-background:new 0 0 595.28 841.89;" xml:space="preserve">
<style type="text/css">
	.st0{fill:#FFFFFF;}
	.st1{fill:#4396C4;}
	.st2{fill:none;stroke:#A6A5A5;stroke-width:1.31;stroke-miterlimit:10;}
	.st3{fill:#A6A5A5;}
</style>
<g>
	<path class="st0" d="M266.1,405.88h-7.97v6.93h7.36v2.31h-7.36v9.02h-2.61v-20.59h10.58V405.88z"/>
	<path class="st0" d="M276.3,424.5c-2.25,0-4.04-0.71-5.38-2.12c-1.33-1.41-2-3.29-2-5.62c0-2.52,0.69-4.48,2.07-5.9
		c1.38-1.42,3.26-2.13,5.64-2.14c2.26-0.01,4.03,0.68,5.3,2.07c1.28,1.39,1.92,3.3,1.92,5.73c0,2.42-0.68,4.35-2.05,5.8
		C280.43,423.78,278.6,424.5,276.3,424.5z M276.48,422.38c1.53,0,2.71-0.5,3.52-1.5s1.23-2.42,1.23-4.26c0-1.86-0.41-3.28-1.24-4.28
		c-0.82-1-2-1.49-3.52-1.49s-2.73,0.52-3.61,1.56c-0.89,1.04-1.33,2.47-1.33,4.29c0,1.77,0.45,3.16,1.33,4.17
		C273.76,421.87,274.96,422.38,276.48,422.38z"/>
	<path class="st0" d="M295.41,411.26c-0.19-0.06-0.37-0.1-0.53-0.13c-0.16-0.03-0.36-0.04-0.59-0.04c-1.22,0-2.17,0.51-2.87,1.54
		c-0.7,1.03-1.05,2.33-1.05,3.9v7.61h-2.56v-15.06h2.56v2.99h0.06c0.34-1.06,0.87-1.87,1.57-2.42s1.52-0.83,2.45-0.83
		c0.3,0,0.55,0.01,0.77,0.04c0.21,0.03,0.41,0.07,0.6,0.13L295.41,411.26z"/>
	<path class="st0" d="M318.05,424.14h-11.04v-20.59h10.58v2.33h-7.97v6.63H317v2.33h-7.38v6.98h8.43V424.14z"/>
	<path class="st0" d="M321.91,424.14v-21.76h2.56v21.76H321.91z"/>
	<path class="st0" d="M341.65,417.19h-10.59c0.05,1.67,0.49,2.95,1.33,3.84c0.84,0.9,2.02,1.34,3.55,1.34c0.66,0,1.34-0.1,2.03-0.31
		c0.69-0.21,1.39-0.54,2.09-1.01l1.16,1.78c-0.87,0.57-1.75,1-2.63,1.26c-0.88,0.27-1.85,0.4-2.9,0.4c-2.28,0-4.05-0.68-5.33-2.03
		c-1.27-1.35-1.92-3.25-1.92-5.68c-0.01-2.42,0.63-4.37,1.93-5.85s2.98-2.22,5.05-2.22c1.97,0,3.5,0.64,4.59,1.92
		c1.09,1.28,1.64,3.06,1.64,5.33V417.19z M339.08,415.18c-0.01-1.39-0.34-2.46-1-3.23c-0.66-0.77-1.56-1.15-2.71-1.15
		c-1.13,0-2.08,0.39-2.86,1.18s-1.26,1.85-1.43,3.19H339.08z"/>
	<path class="st0" d="M356.21,423.19c-0.72,0.46-1.44,0.79-2.15,1c-0.72,0.21-1.49,0.31-2.31,0.31c-2.15,0-3.91-0.66-5.27-1.99
		c-1.36-1.33-2.04-3.18-2.04-5.56c0-2.47,0.69-4.46,2.07-5.96s3.28-2.26,5.68-2.26c0.78,0,1.51,0.09,2.21,0.28
		c0.7,0.19,1.4,0.49,2.11,0.9l-1.08,1.87c-0.55-0.33-1.08-0.56-1.61-0.7c-0.53-0.14-1.09-0.21-1.69-0.21
		c-1.64,0-2.89,0.54-3.77,1.63c-0.88,1.09-1.31,2.48-1.31,4.18c0,1.84,0.46,3.24,1.37,4.22c0.91,0.98,2.09,1.46,3.54,1.46
		c0.49,0,0.99-0.07,1.51-0.22s1.06-0.4,1.62-0.75L356.21,423.19z"/>
	<path class="st0" d="M367.07,423.96c-0.41,0.17-0.82,0.3-1.23,0.38c-0.41,0.08-0.86,0.12-1.37,0.12c-1.23,0-2.2-0.35-2.89-1.06
		c-0.69-0.71-1.04-1.76-1.04-3.14v-9.04h-2.57v-2.12h2.57v-3.45l2.57-0.82v4.26h3.76v2.12h-3.76v8.76c0,0.85,0.15,1.47,0.46,1.84
		c0.31,0.38,0.77,0.57,1.38,0.57c0.29,0,0.56-0.03,0.83-0.1c0.27-0.07,0.5-0.15,0.69-0.24L367.07,423.96z"/>
	<path class="st0" d="M377.87,411.26c-0.19-0.06-0.37-0.1-0.53-0.13c-0.16-0.03-0.36-0.04-0.59-0.04c-1.22,0-2.17,0.51-2.87,1.54
		c-0.7,1.03-1.05,2.33-1.05,3.9v7.61h-2.56v-15.06h2.56v2.99h0.06c0.34-1.06,0.87-1.87,1.57-2.42s1.52-0.83,2.45-0.83
		c0.3,0,0.55,0.01,0.77,0.04c0.21,0.03,0.41,0.07,0.6,0.13L377.87,411.26z"/>
	<path class="st0" d="M382.39,405.9c-0.51,0-0.93-0.17-1.26-0.5s-0.5-0.74-0.5-1.22c0-0.5,0.17-0.91,0.5-1.24s0.76-0.5,1.26-0.5
		c0.51,0,0.93,0.17,1.27,0.5c0.34,0.33,0.51,0.74,0.51,1.24c0,0.48-0.17,0.89-0.51,1.22C383.32,405.73,382.9,405.9,382.39,405.9z
		 M383.64,424.14h-2.56v-15.06h2.56V424.14z"/>
	<path class="st0" d="M399.56,423.19c-0.72,0.46-1.44,0.79-2.15,1c-0.72,0.21-1.49,0.31-2.31,0.31c-2.15,0-3.91-0.66-5.27-1.99
		c-1.36-1.33-2.04-3.18-2.04-5.56c0-2.47,0.69-4.46,2.07-5.96s3.28-2.26,5.68-2.26c0.78,0,1.51,0.09,2.21,0.28
		c0.7,0.19,1.4,0.49,2.11,0.9l-1.08,1.87c-0.55-0.33-1.08-0.56-1.61-0.7c-0.53-0.14-1.09-0.21-1.69-0.21
		c-1.64,0-2.89,0.54-3.77,1.63c-0.88,1.09-1.31,2.48-1.31,4.18c0,1.84,0.46,3.24,1.37,4.22c0.91,0.98,2.09,1.46,3.54,1.46
		c0.49,0,0.99-0.07,1.51-0.22s1.06-0.4,1.62-0.75L399.56,423.19z"/>
	<path class="st0" d="M413.89,424.14h-2.54v-2.37h-0.06c-0.52,0.9-1.16,1.58-1.92,2.04c-0.77,0.46-1.66,0.69-2.67,0.69
		c-1.42,0-2.56-0.41-3.43-1.23c-0.87-0.82-1.31-1.91-1.31-3.26c0-1.31,0.44-2.39,1.32-3.23c0.88-0.84,2.15-1.38,3.8-1.62l4.28-0.57
		v-0.34c0-1.22-0.29-2.09-0.87-2.63c-0.58-0.54-1.36-0.8-2.33-0.8c-0.78,0-1.53,0.15-2.27,0.44c-0.74,0.3-1.44,0.74-2.1,1.33
		l-1.39-1.55c0.85-0.78,1.76-1.37,2.73-1.74c0.97-0.38,2.04-0.57,3.19-0.57c1.84,0,3.22,0.47,4.16,1.42c0.93,0.95,1.4,2.37,1.4,4.26
		V424.14z M411.36,418v-1.45l-3.59,0.49c-1.1,0.15-1.92,0.43-2.47,0.83s-0.82,1.03-0.82,1.9c0,0.85,0.26,1.51,0.77,1.98
		c0.51,0.47,1.15,0.7,1.92,0.7c1.26,0,2.28-0.42,3.04-1.26C410.98,420.35,411.36,419.29,411.36,418z"/>
	<path class="st0" d="M418.62,424.14v-21.76h2.56v21.76H418.62z"/>
	<path class="st0" d="M437.14,424.14h-2.61v-20.59h2.61V424.14z"/>
	<path class="st0" d="M455.08,424.14h-2.56v-8.58c0-1.57-0.29-2.75-0.86-3.53s-1.43-1.18-2.57-1.18c-1.18,0-2.15,0.44-2.93,1.33
		c-0.77,0.89-1.16,2.01-1.16,3.37v8.6h-2.56v-15.06h2.56v2.5h0.06c0.57-0.95,1.26-1.66,2.08-2.14s1.78-0.72,2.86-0.72
		c1.65,0,2.9,0.53,3.78,1.59s1.31,2.6,1.31,4.61V424.14z"/>
	<path class="st0" d="M470.13,421.61c-0.56,0.96-1.26,1.68-2.12,2.16c-0.86,0.48-1.86,0.72-3.02,0.72c-1.89,0-3.41-0.67-4.54-2.02
		c-1.13-1.35-1.7-3.19-1.7-5.51c0-2.5,0.63-4.5,1.88-5.99c1.25-1.5,2.92-2.25,5.01-2.25c1.03,0,1.92,0.2,2.67,0.6
		c0.75,0.4,1.35,1.01,1.82,1.82h0.06v-8.77h2.55v21.76h-2.55v-2.53H470.13z M461.36,416.83c0,1.72,0.4,3.08,1.19,4.06
		c0.79,0.99,1.86,1.48,3.19,1.48c1.34,0,2.42-0.48,3.23-1.44s1.22-2.17,1.22-3.63v-2.15c0-1.21-0.4-2.23-1.18-3.06
		c-0.79-0.83-1.79-1.25-2.99-1.25c-1.45,0-2.58,0.53-3.41,1.59C461.77,413.5,461.36,414.97,461.36,416.83z"/>
	<path class="st0" d="M490.04,424.14h-2.55v-2.4h-0.06c-0.51,0.92-1.15,1.61-1.93,2.07c-0.78,0.46-1.69,0.69-2.74,0.69
		c-1.79,0-3.13-0.53-4.03-1.6c-0.89-1.07-1.34-2.67-1.34-4.82v-9h2.55v8.61c0,1.56,0.3,2.73,0.89,3.51
		c0.59,0.78,1.49,1.17,2.68,1.17c1.16,0,2.11-0.43,2.85-1.28c0.74-0.85,1.11-1.97,1.11-3.36v-8.66h2.55V424.14z"/>
	<path class="st0" d="M493.66,423.02l1.19-1.92c0.63,0.42,1.26,0.74,1.88,0.96c0.62,0.22,1.31,0.33,2.05,0.33
		c1,0,1.77-0.18,2.3-0.55c0.53-0.37,0.79-0.92,0.79-1.66c0-0.61-0.23-1.12-0.7-1.53c-0.46-0.41-1.19-0.74-2.19-1
		c-1.87-0.47-3.15-1.07-3.85-1.8c-0.7-0.73-1.05-1.64-1.05-2.73c0-1.26,0.48-2.31,1.44-3.14c0.96-0.83,2.28-1.25,3.94-1.25
		c0.8,0,1.57,0.1,2.29,0.31c0.72,0.21,1.45,0.55,2.19,1.03l-1.11,1.9c-0.67-0.42-1.27-0.72-1.81-0.88
		c-0.54-0.17-1.08-0.25-1.64-0.25c-0.95,0-1.67,0.18-2.18,0.53c-0.51,0.35-0.76,0.87-0.76,1.54c0,0.65,0.25,1.15,0.75,1.49
		c0.5,0.34,1.33,0.66,2.48,0.96c1.54,0.41,2.69,0.98,3.45,1.72c0.76,0.73,1.14,1.71,1.14,2.92c0,1.39-0.5,2.49-1.5,3.31
		c-1,0.82-2.36,1.23-4.08,1.23c-0.94,0-1.83-0.13-2.68-0.38C495.17,423.87,494.38,423.5,493.66,423.02z"/>
	<path class="st0" d="M515.41,423.96c-0.41,0.17-0.82,0.3-1.23,0.38c-0.41,0.08-0.86,0.12-1.37,0.12c-1.23,0-2.2-0.35-2.89-1.06
		c-0.69-0.71-1.04-1.76-1.04-3.14v-9.04h-2.57v-2.12h2.57v-3.45l2.57-0.82v4.26h3.76v2.12h-3.76v8.76c0,0.85,0.15,1.47,0.46,1.84
		c0.31,0.38,0.77,0.57,1.38,0.57c0.29,0,0.56-0.03,0.83-0.1c0.27-0.07,0.5-0.15,0.69-0.24L515.41,423.96z"/>
	<path class="st0" d="M526.2,411.26c-0.19-0.06-0.37-0.1-0.53-0.13c-0.16-0.03-0.36-0.04-0.59-0.04c-1.22,0-2.17,0.51-2.87,1.54
		c-0.7,1.03-1.05,2.33-1.05,3.9v7.61h-2.56v-15.06h2.56v2.99h0.06c0.34-1.06,0.87-1.87,1.57-2.42s1.52-0.83,2.45-0.83
		c0.3,0,0.55,0.01,0.77,0.04c0.21,0.03,0.41,0.07,0.6,0.13L526.2,411.26z"/>
	<path class="st0" d="M530.72,405.9c-0.51,0-0.93-0.17-1.26-0.5s-0.5-0.74-0.5-1.22c0-0.5,0.17-0.91,0.5-1.24s0.76-0.5,1.26-0.5
		c0.51,0,0.93,0.17,1.27,0.5c0.34,0.33,0.51,0.74,0.51,1.24c0,0.48-0.17,0.89-0.51,1.22C531.65,405.73,531.23,405.9,530.72,405.9z
		 M531.97,424.14h-2.56v-15.06h2.56V424.14z"/>
	<path class="st0" d="M549.33,417.19h-10.59c0.05,1.67,0.49,2.95,1.33,3.84c0.84,0.9,2.02,1.34,3.55,1.34c0.66,0,1.34-0.1,2.03-0.31
		c0.69-0.21,1.39-0.54,2.09-1.01l1.16,1.78c-0.87,0.57-1.75,1-2.63,1.26c-0.88,0.27-1.85,0.4-2.9,0.4c-2.28,0-4.05-0.68-5.33-2.03
		c-1.27-1.35-1.92-3.25-1.92-5.68c-0.01-2.42,0.63-4.37,1.93-5.85s2.98-2.22,5.05-2.22c1.97,0,3.5,0.64,4.59,1.92
		c1.09,1.28,1.64,3.06,1.64,5.33V417.19z M546.76,415.18c-0.01-1.39-0.34-2.46-1-3.23c-0.66-0.77-1.56-1.15-2.71-1.15
		c-1.13,0-2.08,0.39-2.86,1.18s-1.26,1.85-1.43,3.19H546.76z"/>
	<path class="st0" d="M551.77,423.02l1.19-1.92c0.63,0.42,1.26,0.74,1.88,0.96c0.62,0.22,1.31,0.33,2.05,0.33
		c1,0,1.77-0.18,2.3-0.55c0.53-0.37,0.79-0.92,0.79-1.66c0-0.61-0.23-1.12-0.7-1.53c-0.46-0.41-1.19-0.74-2.19-1
		c-1.87-0.47-3.15-1.07-3.85-1.8c-0.7-0.73-1.05-1.64-1.05-2.73c0-1.26,0.48-2.31,1.44-3.14c0.96-0.83,2.28-1.25,3.94-1.25
		c0.8,0,1.57,0.1,2.29,0.31c0.72,0.21,1.45,0.55,2.19,1.03l-1.11,1.9c-0.67-0.42-1.27-0.72-1.81-0.88
		c-0.54-0.17-1.08-0.25-1.64-0.25c-0.95,0-1.67,0.18-2.18,0.53c-0.51,0.35-0.76,0.87-0.76,1.54c0,0.65,0.25,1.15,0.75,1.49
		c0.5,0.34,1.33,0.66,2.48,0.96c1.54,0.41,2.69,0.98,3.45,1.72c0.76,0.73,1.14,1.71,1.14,2.92c0,1.39-0.5,2.49-1.5,3.31
		c-1,0.82-2.36,1.23-4.08,1.23c-0.94,0-1.83-0.13-2.68-0.38C553.28,423.87,552.5,423.5,551.77,423.02z"/>
</g>
<g>
	<polygon class="st1" points="34.18,333.48 166.22,199.29 191.34,221.54 179.86,233.02 168.37,223.69 58.58,332.05 125.32,398.07 
		117.42,415.29 	"/>
	<polyline class="st1" points="99.48,466.96 101.45,463.56 169.81,345.68 88,338.51 224.35,201.45 137.52,314.11 225.78,337.07 
		100.38,466.06 	"/>
	<polygon class="st1" points="197.08,254.55 237.26,293.3 248.74,281.1 207.84,240.2 	"/>
	<polygon class="st1" points="139.67,440.41 153.3,426.05 167.66,440.41 244.44,364.34 567.36,364.34 567.36,382.28 250.18,382.28 
		168.37,465.52 	"/>
</g>
<g>
	<path class="st0" d="M281.66,350.45v-3.71c6.35-1.07,6.78-2.28,5.21-6.71c-1.07-3.07-2.71-7.56-4.5-12.06h-20.7
		c-1.21,3.43-2.71,7.28-3.92,11.49c-1.57,4.78-1.36,6.28,6.42,7.28v3.71h-23.91l0.14-3.71c7.28-0.86,8.42-2.14,12.06-11.13
		l21.91-53.24l5.5-1.36c6.85,18.2,13.49,36.4,20.48,54.24c3.57,9.21,5,10.63,11.85,11.49v3.71H281.66z M272.38,299.93h-0.29
		c-3,7.49-5.85,15.06-8.56,22.48h16.84L272.38,299.93z"/>
	<path class="st0" d="M402.31,321.77c-5.35,1.07-6.07,1.57-6.07,8.64v7.99c0,3.71,0.07,7.06,0.71,9.78
		c-6.57,1.43-16.2,3.93-24.83,3.93c-25.12,0-41.68-13.7-41.68-34.9c0-23.69,20.05-36.18,43.03-36.18c8.92,0,17.56,2.21,21.41,3
		c0.29,3.57,0.86,9.06,1.64,17.56l-3.93,0.86c-2.35-11.78-10.78-16.91-21.34-16.91c-13.27,0-24.69,11.28-24.69,29.9
		c0,15.49,8.06,32.26,26.62,32.26c2.14,0,4.78-0.36,6.35-1.28c1.5-0.93,2.57-2.71,2.57-5.92v-9.21c0-7.64-0.64-8.42-11.99-9.49
		v-3.64h32.19V321.77z"/>
	<path class="st0" d="M477.58,332.9c-0.71,4.78-2.93,14.42-3.78,17.56h-54.74v-3.71c9.28-0.79,10.28-1.36,10.28-10.35v-39.68
		c0-9.28-1-9.78-8.71-10.42v-3.71h50.53c0.07,1.86,0.57,9.13,1,15.91l-3.85,0.5c-0.93-3.64-2.5-7.28-4.42-9.13
		s-4.78-2.64-10.42-2.64h-5.42c-4.14,0-4.42,0.21-4.42,3.64v22.19h7.28c8.99,0,10.49-0.64,11.85-7.92h3.85v21.2h-3.85
		c-1.36-7.49-2.85-7.92-11.85-7.92h-7.28v17.7c0,5,0.36,7.71,2.57,8.63c1.86,0.86,5.85,1,9.78,1c5.28,0,9.35-0.57,11.85-3.28
		c2.07-2.28,4.07-5.71,6-10.42L477.58,332.9z"/>
	<path class="st0" d="M562.2,332.26c-1.5,5.21-4.35,13.42-6.14,16.98c-2.78,0.57-13.13,2.85-20.41,2.85
		c-28.76,0-41.11-18.2-41.11-34.83c0-21.48,17.2-36.25,43.1-36.25c9.06,0,17.27,2.28,20.05,2.93c0.93,5.71,1.86,10.49,2.5,17.41
		l-3.93,0.64c-3.35-12.63-12.2-16.27-20.7-16.27c-16.2,0-24.83,14.2-24.83,29.47c0,19.27,10.92,31.83,26.05,31.83
		c9.21,0,16.06-5.5,21.62-16.41L562.2,332.26z"/>
</g>
<g>
	<circle class="st2" cx="574.9" cy="256.36" r="7.78"/>
	<g>
		<g>
			<g>
				<path class="st3" d="M578.99,260.56h-1.28l-1.57-2.6c-0.29-0.49-0.55-0.8-0.75-0.94c-0.21-0.14-0.46-0.21-0.76-0.21h-1.05v3.75
					h-1.08v-9.17h2.74c0.8,0,1.46,0.21,1.99,0.63c0.53,0.42,0.8,1.04,0.8,1.87c0,0.65-0.17,1.19-0.5,1.63
					c-0.34,0.44-0.8,0.76-1.39,0.95v0.03c0.19,0.12,0.36,0.24,0.5,0.38c0.14,0.14,0.3,0.34,0.46,0.6L578.99,260.56z M573.57,252.36
					v3.48h1.46c0.53,0,0.98-0.17,1.33-0.52c0.36-0.35,0.53-0.79,0.53-1.34c0-0.49-0.16-0.88-0.48-1.18
					c-0.32-0.29-0.78-0.44-1.38-0.44H573.57z"/>
			</g>
		</g>
	</g>
</g>
</svg>
