<?xml version="1.0" encoding="utf-8"?>
<!-- Generator: Adobe Illustrator 27.5.0, SVG Export Plug-In . SVG Version: 6.00 Build 0)  -->
<svg version="1.1" id="Layer_1" xmlns="http://www.w3.org/2000/svg" xmlns:xlink="http://www.w3.org/1999/xlink" x="0px" y="0px"
	 viewBox="0 0 581.49 288.87" style="enable-background:new 0 0 581.49 288.87;" xml:space="preserve">
<style type="text/css">
	.st0{fill:#212631;}
	.st1{fill:#4396C4;}
	.st2{fill:none;stroke:#A6A5A5;stroke-width:1.4128;stroke-miterlimit:10;}
	.st3{fill:#A6A5A5;}
</style>
<g>
	<path class="st0" d="M251.89,224.99h-8.59v7.48h7.94v2.49h-7.94v9.72h-2.82v-22.2h11.41V224.99z"/>
	<path class="st0" d="M262.9,245.07c-2.43,0-4.36-0.76-5.8-2.28c-1.44-1.52-2.16-3.54-2.16-6.06c0-2.71,0.74-4.83,2.23-6.36
		c1.49-1.53,3.51-2.3,6.08-2.31c2.44-0.01,4.34,0.74,5.72,2.24s2.07,3.56,2.07,6.18c0,2.61-0.74,4.7-2.21,6.25
		C267.35,244.29,265.37,245.07,262.9,245.07z M263.08,242.78c1.65,0,2.92-0.54,3.8-1.62c0.88-1.08,1.32-2.61,1.32-4.59
		c0-2-0.44-3.54-1.33-4.61c-0.89-1.07-2.15-1.61-3.79-1.61c-1.64,0-2.94,0.56-3.89,1.68c-0.96,1.12-1.43,2.66-1.43,4.62
		c0,1.91,0.48,3.41,1.44,4.5C260.16,242.24,261.45,242.78,263.08,242.78z"/>
	<path class="st0" d="M283.5,230.8c-0.21-0.06-0.4-0.11-0.57-0.14c-0.18-0.03-0.39-0.05-0.63-0.05c-1.31,0-2.34,0.55-3.1,1.66
		c-0.75,1.11-1.13,2.51-1.13,4.2v8.21h-2.76v-16.24h2.76v3.22h0.06c0.37-1.15,0.94-2.02,1.7-2.61c0.76-0.59,1.64-0.89,2.64-0.89
		c0.32,0,0.6,0.02,0.83,0.05c0.23,0.03,0.45,0.08,0.64,0.14L283.5,230.8z"/>
	<path class="st0" d="M307.92,244.69h-11.91v-22.2h11.41v2.51h-8.59v7.15h7.96v2.51h-7.96v7.52h9.09V244.69z"/>
	<path class="st0" d="M312.08,244.69v-23.47h2.76v23.47H312.08z"/>
	<path class="st0" d="M333.37,237.19h-11.43c0.05,1.8,0.53,3.18,1.44,4.14c0.91,0.96,2.18,1.45,3.82,1.45
		c0.71,0,1.44-0.11,2.19-0.33c0.75-0.22,1.5-0.59,2.25-1.09l1.25,1.92c-0.94,0.62-1.88,1.07-2.83,1.36
		c-0.95,0.29-1.99,0.43-3.13,0.43c-2.46,0-4.37-0.73-5.74-2.19c-1.37-1.46-2.06-3.5-2.07-6.12c-0.01-2.61,0.68-4.71,2.08-6.31
		s3.21-2.39,5.44-2.39c2.13,0,3.78,0.69,4.95,2.07c1.18,1.38,1.76,3.29,1.76,5.75V237.19z M330.6,235.02
		c-0.01-1.5-0.37-2.66-1.08-3.48c-0.71-0.83-1.68-1.24-2.92-1.24c-1.22,0-2.25,0.43-3.09,1.28c-0.84,0.85-1.35,2-1.54,3.44H330.6z"
		/>
	<path class="st0" d="M349.07,243.66c-0.77,0.5-1.55,0.85-2.32,1.08c-0.77,0.22-1.61,0.33-2.49,0.33c-2.32,0-4.22-0.71-5.68-2.14
		s-2.2-3.43-2.2-6c0-2.66,0.75-4.81,2.24-6.43c1.49-1.63,3.53-2.44,6.12-2.44c0.84,0,1.63,0.1,2.38,0.3
		c0.75,0.2,1.51,0.52,2.28,0.97l-1.16,2.01c-0.59-0.35-1.17-0.6-1.73-0.75s-1.18-0.22-1.83-0.22c-1.76,0-3.12,0.59-4.06,1.76
		c-0.94,1.17-1.42,2.68-1.42,4.51c0,1.98,0.49,3.5,1.48,4.55s2.26,1.58,3.82,1.58c0.53,0,1.07-0.08,1.63-0.24
		c0.56-0.16,1.14-0.43,1.74-0.81L349.07,243.66z"/>
	<path class="st0" d="M360.79,244.48c-0.44,0.19-0.89,0.32-1.32,0.41s-0.93,0.13-1.48,0.13c-1.33,0-2.37-0.38-3.12-1.15
		c-0.75-0.76-1.12-1.89-1.12-3.39v-9.75h-2.77v-2.29h2.77v-3.72l2.77-0.88v4.6h4.06v2.29h-4.06v9.44c0,0.92,0.17,1.58,0.5,1.99
		c0.33,0.41,0.83,0.61,1.49,0.61c0.31,0,0.61-0.04,0.9-0.11c0.29-0.07,0.54-0.16,0.74-0.26L360.79,244.48z"/>
	<path class="st0" d="M372.43,230.8c-0.21-0.06-0.4-0.11-0.57-0.14c-0.18-0.03-0.39-0.05-0.63-0.05c-1.31,0-2.34,0.55-3.1,1.66
		c-0.75,1.11-1.13,2.51-1.13,4.2v8.21h-2.76v-16.24H367v3.22h0.06c0.37-1.15,0.94-2.02,1.7-2.61c0.76-0.59,1.64-0.89,2.64-0.89
		c0.32,0,0.6,0.02,0.83,0.05c0.23,0.03,0.45,0.08,0.64,0.14L372.43,230.8z"/>
	<path class="st0" d="M377.31,225.01c-0.55,0-1-0.18-1.36-0.54s-0.54-0.8-0.54-1.32c0-0.54,0.18-0.98,0.54-1.34s0.82-0.53,1.36-0.53
		s1,0.18,1.37,0.53c0.37,0.36,0.55,0.8,0.55,1.34c0,0.52-0.18,0.96-0.55,1.32C378.31,224.83,377.86,225.01,377.31,225.01z
		 M378.66,244.69h-2.76v-16.24h2.76V244.69z"/>
	<path class="st0" d="M395.83,243.66c-0.77,0.5-1.55,0.85-2.32,1.08c-0.77,0.22-1.61,0.33-2.49,0.33c-2.32,0-4.22-0.71-5.68-2.14
		s-2.2-3.43-2.2-6c0-2.66,0.75-4.81,2.24-6.43c1.49-1.63,3.53-2.44,6.12-2.44c0.84,0,1.63,0.1,2.38,0.3
		c0.75,0.2,1.51,0.52,2.28,0.97l-1.16,2.01c-0.59-0.35-1.17-0.6-1.73-0.75s-1.18-0.22-1.83-0.22c-1.76,0-3.12,0.59-4.06,1.76
		c-0.94,1.17-1.42,2.68-1.42,4.51c0,1.98,0.49,3.5,1.48,4.55s2.26,1.58,3.82,1.58c0.53,0,1.07-0.08,1.63-0.24
		c0.56-0.16,1.14-0.43,1.74-0.81L395.83,243.66z"/>
	<path class="st0" d="M411.28,244.69h-2.74v-2.55h-0.06c-0.56,0.97-1.25,1.7-2.08,2.2c-0.83,0.5-1.79,0.74-2.88,0.74
		c-1.53,0-2.76-0.44-3.7-1.33c-0.94-0.89-1.41-2.06-1.41-3.51c0-1.41,0.47-2.58,1.42-3.48c0.95-0.91,2.32-1.49,4.1-1.75l4.61-0.62
		V234c0-1.31-0.31-2.25-0.94-2.83c-0.62-0.58-1.46-0.87-2.52-0.87c-0.84,0-1.65,0.16-2.45,0.48c-0.79,0.32-1.55,0.8-2.26,1.44
		l-1.5-1.67c0.92-0.85,1.9-1.47,2.95-1.88c1.05-0.41,2.2-0.61,3.45-0.61c1.98,0,3.48,0.51,4.48,1.53c1.01,1.02,1.51,2.55,1.51,4.6
		V244.69z M408.55,238.06v-1.56l-3.87,0.53c-1.19,0.17-2.08,0.46-2.66,0.9c-0.59,0.43-0.88,1.11-0.88,2.04
		c0,0.92,0.28,1.63,0.83,2.14c0.55,0.51,1.24,0.76,2.07,0.76c1.36,0,2.46-0.45,3.28-1.35C408.14,240.6,408.55,239.45,408.55,238.06z
		"/>
	<path class="st0" d="M416.39,244.69v-23.47h2.76v23.47H416.39z"/>
	<path class="st0" d="M436.36,244.69h-2.82v-22.2h2.82V244.69z"/>
	<path class="st0" d="M455.71,244.69h-2.76v-9.26c0-1.69-0.31-2.96-0.93-3.81c-0.62-0.85-1.54-1.27-2.77-1.27
		c-1.27,0-2.32,0.48-3.16,1.43s-1.25,2.17-1.25,3.63v9.27h-2.76v-16.24h2.76v2.69h0.06c0.61-1.02,1.36-1.79,2.25-2.31
		c0.89-0.52,1.91-0.77,3.08-0.77c1.78,0,3.13,0.57,4.07,1.72s1.41,2.8,1.41,4.97V244.69z"/>
	<path class="st0" d="M471.94,241.96c-0.6,1.03-1.36,1.81-2.28,2.33c-0.92,0.52-2.01,0.78-3.26,0.78c-2.04,0-3.68-0.73-4.9-2.18
		c-1.22-1.46-1.83-3.44-1.83-5.95c0-2.69,0.68-4.85,2.03-6.46c1.35-1.62,3.15-2.42,5.4-2.42c1.11,0,2.07,0.22,2.88,0.65
		c0.81,0.43,1.46,1.09,1.97,1.97H472v-9.46h2.76v23.47H472v-2.72H471.94z M462.48,236.8c0,1.86,0.43,3.32,1.29,4.38
		c0.86,1.06,2,1.59,3.44,1.59c1.44,0,2.61-0.52,3.48-1.55c0.88-1.03,1.32-2.34,1.32-3.92v-2.32c0-1.3-0.43-2.4-1.28-3.3
		c-0.85-0.9-1.93-1.35-3.23-1.35c-1.56,0-2.78,0.57-3.68,1.72C462.92,233.21,462.48,234.79,462.48,236.8z"/>
	<path class="st0" d="M493.41,244.69h-2.76v-2.59h-0.06c-0.55,0.99-1.24,1.73-2.08,2.23c-0.84,0.5-1.82,0.74-2.95,0.74
		c-1.93,0-3.38-0.58-4.34-1.73c-0.96-1.15-1.45-2.88-1.45-5.19v-9.71h2.76v9.29c0,1.68,0.32,2.94,0.96,3.79
		c0.64,0.84,1.6,1.26,2.89,1.26c1.25,0,2.27-0.46,3.07-1.38s1.2-2.13,1.2-3.62v-9.34h2.76V244.69z"/>
	<path class="st0" d="M497.31,243.48l1.29-2.07c0.68,0.45,1.36,0.8,2.03,1.04s1.41,0.36,2.21,0.36c1.08,0,1.91-0.2,2.48-0.6
		c0.57-0.4,0.85-0.99,0.85-1.79c0-0.66-0.25-1.21-0.75-1.65c-0.5-0.44-1.29-0.8-2.36-1.08c-2.01-0.51-3.4-1.15-4.15-1.94
		c-0.75-0.79-1.13-1.77-1.13-2.95c0-1.36,0.52-2.49,1.56-3.39c1.04-0.9,2.45-1.35,4.25-1.35c0.87,0,1.69,0.11,2.47,0.33
		s1.57,0.59,2.36,1.11l-1.19,2.04c-0.72-0.45-1.37-0.77-1.95-0.95s-1.17-0.27-1.76-0.27c-1.02,0-1.81,0.19-2.35,0.57
		s-0.82,0.93-0.82,1.66c0,0.7,0.27,1.24,0.8,1.6c0.54,0.37,1.43,0.71,2.68,1.03c1.66,0.44,2.9,1.06,3.72,1.85
		c0.82,0.79,1.23,1.84,1.23,3.15c0,1.5-0.54,2.69-1.62,3.57c-1.08,0.88-2.55,1.32-4.4,1.32c-1.01,0-1.97-0.14-2.89-0.41
		C498.95,244.39,498.1,243.99,497.31,243.48z"/>
	<path class="st0" d="M520.77,244.48c-0.44,0.19-0.89,0.32-1.32,0.41s-0.93,0.13-1.48,0.13c-1.33,0-2.37-0.38-3.12-1.15
		c-0.75-0.76-1.12-1.89-1.12-3.39v-9.75h-2.77v-2.29h2.77v-3.72l2.77-0.88v4.6h4.06v2.29h-4.06v9.44c0,0.92,0.17,1.58,0.5,1.99
		c0.33,0.41,0.83,0.61,1.49,0.61c0.31,0,0.61-0.04,0.9-0.11c0.29-0.07,0.54-0.16,0.74-0.26L520.77,244.48z"/>
	<path class="st0" d="M532.41,230.8c-0.21-0.06-0.4-0.11-0.57-0.14c-0.18-0.03-0.39-0.05-0.63-0.05c-1.31,0-2.34,0.55-3.1,1.66
		c-0.75,1.11-1.13,2.51-1.13,4.2v8.21h-2.76v-16.24h2.76v3.22h0.06c0.37-1.15,0.94-2.02,1.7-2.61c0.76-0.59,1.64-0.89,2.64-0.89
		c0.32,0,0.6,0.02,0.83,0.05c0.23,0.03,0.45,0.08,0.64,0.14L532.41,230.8z"/>
	<path class="st0" d="M537.29,225.01c-0.55,0-1-0.18-1.36-0.54s-0.54-0.8-0.54-1.32c0-0.54,0.18-0.98,0.54-1.34s0.82-0.53,1.36-0.53
		s1,0.18,1.37,0.53c0.37,0.36,0.55,0.8,0.55,1.34c0,0.52-0.18,0.96-0.55,1.32C538.29,224.83,537.83,225.01,537.29,225.01z
		 M538.64,244.69h-2.76v-16.24h2.76V244.69z"/>
	<path class="st0" d="M557.35,237.19h-11.43c0.05,1.8,0.53,3.18,1.44,4.14c0.91,0.96,2.18,1.45,3.82,1.45
		c0.71,0,1.44-0.11,2.19-0.33c0.75-0.22,1.5-0.59,2.25-1.09l1.25,1.92c-0.94,0.62-1.88,1.07-2.83,1.36
		c-0.95,0.29-1.99,0.43-3.13,0.43c-2.46,0-4.37-0.73-5.74-2.19c-1.37-1.46-2.06-3.5-2.07-6.12c-0.01-2.61,0.68-4.71,2.08-6.31
		s3.21-2.39,5.44-2.39c2.13,0,3.78,0.69,4.95,2.07c1.18,1.38,1.76,3.29,1.76,5.75V237.19z M554.58,235.02
		c-0.01-1.5-0.37-2.66-1.08-3.48c-0.71-0.83-1.68-1.24-2.92-1.24c-1.22,0-2.25,0.43-3.09,1.28c-0.84,0.85-1.35,2-1.54,3.44H554.58z"
		/>
	<path class="st0" d="M559.99,243.48l1.29-2.07c0.68,0.45,1.36,0.8,2.03,1.04s1.41,0.36,2.21,0.36c1.08,0,1.91-0.2,2.48-0.6
		c0.57-0.4,0.85-0.99,0.85-1.79c0-0.66-0.25-1.21-0.75-1.65c-0.5-0.44-1.29-0.8-2.36-1.08c-2.01-0.51-3.4-1.15-4.15-1.94
		c-0.75-0.79-1.13-1.77-1.13-2.95c0-1.36,0.52-2.49,1.56-3.39c1.04-0.9,2.45-1.35,4.25-1.35c0.87,0,1.69,0.11,2.47,0.33
		s1.57,0.59,2.36,1.11l-1.19,2.04c-0.72-0.45-1.37-0.77-1.95-0.95s-1.17-0.27-1.76-0.27c-1.02,0-1.81,0.19-2.35,0.57
		s-0.82,0.93-0.82,1.66c0,0.7,0.27,1.24,0.8,1.6c0.54,0.37,1.43,0.71,2.68,1.03c1.66,0.44,2.9,1.06,3.72,1.85
		c0.82,0.79,1.23,1.84,1.23,3.15c0,1.5-0.54,2.69-1.62,3.57c-1.08,0.88-2.55,1.32-4.4,1.32c-1.01,0-1.97-0.14-2.89-0.41
		C561.62,244.39,560.77,243.99,559.99,243.48z"/>
</g>
<g>
	<polygon class="st1" points="1.77,146.92 144.17,2.19 171.26,26.18 158.88,38.57 146.49,28.5 28.08,145.37 100.06,216.57 
		91.54,235.14 	"/>
	<polyline class="st1" points="72.2,290.87 74.32,287.21 148.04,160.07 59.81,152.33 206.86,4.51 113.21,126.02 208.41,150.79 
		73.16,289.9 	"/>
	<polygon class="st1" points="177.45,61.78 220.79,103.58 233.17,90.42 189.06,46.3 	"/>
	<polygon class="st1" points="115.54,262.23 130.24,246.75 145.72,262.23 228.53,180.19 576.8,180.19 576.8,199.54 234.72,199.54 
		146.49,289.32 	"/>
</g>
<g>
	<path class="st0" d="M268.66,165.21v-4c6.85-1.15,7.31-2.46,5.62-7.24c-1.15-3.31-2.92-8.16-4.85-13.01h-22.32
		c-1.31,3.69-2.92,7.85-4.23,12.39c-1.69,5.16-1.46,6.77,6.93,7.85v4h-25.78l0.15-4c7.85-0.92,9.08-2.31,13.01-12.01l23.63-57.42
		l5.93-1.46c7.39,19.63,14.55,39.25,22.09,58.49c3.85,9.93,5.39,11.47,12.78,12.39v4H268.66z M258.66,110.72h-0.31
		c-3.23,8.08-6.31,16.24-9.24,24.24h18.16L258.66,110.72z"/>
	<path class="st0" d="M398.79,134.27c-5.77,1.16-6.54,1.69-6.54,9.31v8.62c0,4,0.08,7.62,0.77,10.54
		c-7.08,1.54-17.47,4.23-26.78,4.23c-27.09,0-44.95-14.78-44.95-37.64c0-25.55,21.63-39.02,46.41-39.02
		c9.62,0,18.93,2.39,23.09,3.23c0.31,3.85,0.92,9.77,1.77,18.93l-4.23,0.92c-2.54-12.7-11.62-18.24-23.01-18.24
		c-14.32,0-26.63,12.16-26.63,32.25c0,16.7,8.7,34.79,28.71,34.79c2.31,0,5.16-0.38,6.85-1.38c1.62-1,2.77-2.92,2.77-6.39v-9.93
		c0-8.24-0.69-9.08-12.93-10.24v-3.92h34.71V134.27z"/>
	<path class="st0" d="M479.97,146.28c-0.77,5.16-3.16,15.55-4.08,18.93h-59.03v-4c10.01-0.85,11.08-1.46,11.08-11.16v-42.79
		c0-10-1.08-10.54-9.39-11.24v-4h54.49c0.08,2,0.62,9.85,1.08,17.16l-4.16,0.54c-1-3.92-2.69-7.85-4.77-9.85s-5.16-2.85-11.24-2.85
		h-5.85c-4.46,0-4.77,0.23-4.77,3.93v23.94h7.85c9.7,0,11.31-0.69,12.78-8.54h4.16v22.86h-4.16c-1.46-8.08-3.08-8.54-12.78-8.54
		h-7.85v19.09c0,5.39,0.38,8.31,2.77,9.31c2,0.92,6.31,1.08,10.54,1.08c5.7,0,10.08-0.62,12.78-3.54c2.23-2.46,4.39-6.16,6.46-11.24
		L479.97,146.28z"/>
	<path class="st0" d="M571.23,145.59c-1.62,5.62-4.69,14.47-6.62,18.32c-3,0.62-14.16,3.08-22.01,3.08
		c-31.02,0-44.33-19.63-44.33-37.56c0-23.17,18.55-39.1,46.49-39.1c9.77,0,18.63,2.46,21.63,3.16c1,6.16,2,11.31,2.69,18.78
		l-4.23,0.69c-3.62-13.62-13.16-17.55-22.32-17.55c-17.47,0-26.78,15.32-26.78,31.79c0,20.78,11.78,34.33,28.09,34.33
		c9.93,0,17.32-5.93,23.32-17.7L571.23,145.59z"/>
</g>
<g>
	<circle class="st2" cx="570.84" cy="77.83" r="8.39"/>
	<g>
		<g>
			<g>
				<path class="st3" d="M575.25,82.36h-1.38l-1.7-2.81c-0.32-0.52-0.59-0.86-0.81-1.01s-0.5-0.22-0.82-0.22h-1.14v4.04h-1.16v-9.89
					h2.95c0.86,0,1.58,0.23,2.15,0.68c0.57,0.46,0.86,1.13,0.86,2.01c0,0.7-0.18,1.29-0.54,1.76s-0.86,0.82-1.5,1.03v0.03
					c0.21,0.12,0.39,0.26,0.54,0.41c0.16,0.15,0.32,0.36,0.5,0.65L575.25,82.36z M569.4,73.51v3.75h1.57c0.58,0,1.05-0.19,1.44-0.56
					c0.38-0.37,0.58-0.86,0.58-1.45c0-0.53-0.17-0.95-0.51-1.27c-0.34-0.32-0.84-0.48-1.49-0.48H569.4z"/>
			</g>
		</g>
	</g>
</g>
</svg>
